<svg width="42" height="48" viewBox="0 0 42 48" fill="none" xmlns="http://www.w3.org/2000/svg">
<path fill-rule="evenodd" clip-rule="evenodd" d="M21.7893 44.8511C24.4676 43.5445 39.7843 35.4573 39.7843 21.3922C39.7843 11.2345 31.5499 3 21.3922 3C11.2345 3 3 11.2345 3 21.3922C3 35.4573 18.3168 43.5445 20.995 44.8511C21.251 44.976 21.5333 44.976 21.7893 44.8511ZM21.3921 29.2747C25.7454 29.2747 29.2745 25.7457 29.2745 21.3924C29.2745 17.0391 25.7454 13.51 21.3921 13.51C17.0388 13.51 13.5098 17.0391 13.5098 21.3924C13.5098 25.7457 17.0388 29.2747 21.3921 29.2747Z" fill="#CF2F2F"/>
<path d="M21.7893 44.8511L22.3374 45.9746L21.7893 44.8511ZM20.995 44.8511L20.4469 45.9746L20.995 44.8511ZM38.5343 21.3922C38.5343 27.9414 34.9705 33.1737 30.9317 36.9985C26.8989 40.8175 22.5273 43.1003 21.2413 43.7277L22.3374 45.9746C23.7296 45.2954 28.3555 42.8812 32.6507 38.8137C36.9398 34.752 41.0343 28.908 41.0343 21.3922H38.5343ZM21.3922 4.25C30.8595 4.25 38.5343 11.9248 38.5343 21.3922H41.0343C41.0343 10.5441 32.2402 1.75 21.3922 1.75V4.25ZM4.25 21.3922C4.25 11.9248 11.9248 4.25 21.3922 4.25V1.75C10.5441 1.75 1.75 10.5441 1.75 21.3922H4.25ZM21.5431 43.7277C20.257 43.1003 15.8854 40.8175 11.8527 36.9985C7.8138 33.1737 4.25 27.9414 4.25 21.3922H1.75C1.75 28.908 5.84458 34.752 10.1337 38.8137C14.4288 42.8812 19.0547 45.2954 20.4469 45.9746L21.5431 43.7277ZM21.2413 43.7277C21.2781 43.7097 21.3304 43.6948 21.3922 43.6948C21.4539 43.6948 21.5062 43.7097 21.5431 43.7277L20.4469 45.9746C21.0488 46.2682 21.7355 46.2682 22.3374 45.9746L21.2413 43.7277ZM28.0245 21.3924C28.0245 25.0553 25.0551 28.0247 21.3921 28.0247V30.5247C26.4358 30.5247 30.5245 26.436 30.5245 21.3924H28.0245ZM21.3921 14.76C25.0551 14.76 28.0245 17.7294 28.0245 21.3924H30.5245C30.5245 16.3487 26.4358 12.26 21.3921 12.26V14.76ZM14.7598 21.3924C14.7598 17.7294 17.7292 14.76 21.3921 14.76V12.26C16.3485 12.26 12.2598 16.3487 12.2598 21.3924H14.7598ZM21.3921 28.0247C17.7292 28.0247 14.7598 25.0553 14.7598 21.3924H12.2598C12.2598 26.436 16.3485 30.5247 21.3921 30.5247V28.0247Z" fill="#660D0D"/>
</svg>
